#!OML:ASF F:\VICON\USERDATA\INSTALL\rory3\rory3.ASF
:FULLY-SPECIFIED
:DEGREES
972
root -0.216576 16.3525 -0.560387 -159.757 -4.96055 178.376
lowerback -14.0448 0.579988 -1.57088
upperback -5.97635 0.224358 -0.423855
thorax 1.56723 -0.197644 0.469078
lowerneck -14.7132 2.25879 -0.662177
upperneck 41.9604 -3.07712 2.50515
head 18.2643 -2.76586 0.125091
rclavicle 7.71999e-015 -3.37934e-015
rhumerus -44.7971 -19.6931 -63.6044
rradius 12.9273
rwrist 10.8908
rhand 15.4468 10.4437
rfingers 7.12502
rthumb 40.272 -14.6997
lclavicle 7.71999e-015 -3.37934e-015
lhumerus -48.4798 13.3022 69.6926
lradius 29.2161
lwrist -3.63114
lhand 14.5437 26.4399
lfingers 7.12502
lthumb 39.422 51.8377
rfemur -25.8507 -20.9438 26.4995
rtibia 60.5857
rfoot 35.7247 -16.9276
rtoes 18.4339
lfemur -38.0843 0.530818 -34.0208
ltibia 42.1428
lfoot -33.4684 20.6724
ltoes 3.17007
973
root -0.220237 16.352 -0.555919 -159.815 -5.01181 178.386
lowerback -13.9029 0.609934 -1.49094
upperback -5.99054 0.255147 -0.452216
thorax 1.47706 -0.181671 0.399125
lowerneck -14.7124 2.23883 -0.660133
upperneck 41.9245 -3.07887 2.48569
head 18.2417 -2.7637 0.117318
rclavicle 5.68245e-015 8.44835e-015
rhumerus -44.7344 -19.4466 -63.7442
rradius 12.8775
rwrist 9.88761
rhand 16.0639 10.2162
rfingers 7.12502
rthumb 40.8521 -14.747
lclavicle 5.68245e-015 8.44835e-015
lhumerus -48.3375 13.1268 69.7496
lradius 29.076
lwrist -3.57874
lhand 15.0951 26.78
lfingers 7.12502
lthumb 39.9412 52.0238
rfemur -25.7478 -21.031 26.4807
rtibia 60.5708
rfoot 35.2407 -17.1374
rtoes 18.7987
lfemur -38.0525 0.498715 -34.0126
ltibia 42.2059
lfoot -33.3883 20.7971
ltoes 2.79569
974
root -0.222371 16.3535 -0.552439 -159.869 -5.06309 178.611
lowerback -13.8326 0.62493 -1.24281
upperback -5.98299 0.245766 -0.37184
thorax 1.45018 -0.186665 0.341581
lowerneck -14.7168 2.24701 -0.629829
upperneck 41.9094 -3.0157 2.37536
head 18.2279 -2.74592 0.0731467
rclavicle -1.40702e-015 4.37326e-015
rhumerus -44.5685 -19.21 -63.8654
rradius 12.8717
rwrist 9.10502
rhand 16.8273 9.42887
rfingers 7.12502
rthumb 41.5688 -15.304
lclavicle -1.40702e-015 4.37326e-015
lhumerus -48.2843 13.1842 69.7192
lradius 28.9848
lwrist -3.50989
lhand 15.6386 26.9558
lfingers 7.12502
lthumb 40.4524 52.0438
rfemur -25.7135 -21.0324 26.7139
rtibia 60.5166
rfoot 35.0531 -17.3406
rtoes 19.0331
lfemur -38.0621 0.468235 -33.7579
ltibia 42.2851
lfoot -33.2648 20.9971
ltoes 3.29373
975
root -0.22334 16.3539 -0.5518 -159.871 -4.97223 178.621
lowerback -13.8229 0.64285 -1.24024
upperback -5.96991 0.271187 -0.375051
thorax 1.45836 -0.173332 0.340504
lowerneck -14.8302 2.26624 -0.664845
upperneck 41.9494 -2.96214 2.36194
head 18.2811 -2.72851 0.0821319
rclavicle -6.28657e-015 -3.8763e-015
rhumerus -44.3421 -19.1808 -63.9075
rradius 12.7325
rwrist 8.63244
rhand 17.4097 8.78352
rfingers 7.12502
rthumb 42.1148 -15.7679
lclavicle -6.28657e-015 -3.8763e-015
lhumerus -48.2521 12.9857 69.839
lradius 29.1461
lwrist -3.15459
lhand 16.1322 27.0774
lfingers 7.12502
lthumb 40.9163 52.0203
rfemur -25.7481 -20.9688 26.6844
rtibia 60.509
rfoot 35.3308 -17.4324
rtoes 19.6123
lfemur -38.0721 0.306148 -33.7077
ltibia 42.3288
lfoot -33.5383 20.9733
ltoes 4.27346
976
root -0.229118 16.3521 -0.552691 -159.843 -5.03501 178.865
lowerback -13.8747 0.720261 -0.893667
upperback -6.01706 0.321187 -0.354972
thorax 1.44001 -0.156954 0.173481
lowerneck -14.9127 2.29027 -0.791724
upperneck 42.0899 -2.99598 2.51944
head 18.3959 -2.75065 0.166783
rclavicle -9.71871e-015 -6.95746e-016
rhumerus -44.2665 -18.7922 -64.2569
rradius 12.8095
rwrist 7.69089
rhand 17.8519 8.37794
rfingers 7.12502
rthumb 42.529 -16.0324
lclavicle -9.71871e-015 -6.95746e-016
lhumerus -48.2974 12.5667 70.04
lradius 29.331
lwrist -2.81084
lhand 16.4167 26.7154
lfingers 7.12502
lthumb 41.1835 51.5732
rfemur -25.7677 -21.0373 26.932
rtibia 60.486
rfoot 35.8817 -16.8764
rtoes 19.0308
lfemur -38.1421 0.165842 -33.4101
ltibia 42.3609
lfoot -33.8246 20.6956
ltoes 5.44506
977
root -0.223545 16.3541 -0.559492 -159.815 -4.86336 178.881
lowerback -14.0439 0.771792 -0.997808
upperback -6.00307 0.399788 -0.358772
thorax 1.54292 -0.118949 0.240116
lowerneck -14.9716 2.28019 -0.851305
upperneck 42.156 -3.02448 2.54842
head 18.4549 -2.77131 0.182892
rclavicle 2.14734e-014 3.97569e-016
rhumerus -44.1116 -18.3794 -64.632
rradius 12.8626
rwrist 6.86893
rhand 17.9828 8.62576
rfingers 7.12502
rthumb 42.6515 -15.7422
lclavicle 2.14734e-014 3.97569e-016
lhumerus -48.3079 12.4323 70.0879
lradius 29.3713
lwrist -2.71407
lhand 16.8663 26.4955
lfingers 7.12502
lthumb 41.6054 51.2164
rfemur -25.7874 -20.7418 26.9571
rtibia 60.4703
rfoot 35.8684 -16.6899
rtoes 18.2104
lfemur -38.1811 0.210357 -33.3746
ltibia 42.3775
lfoot -34.1197 20.4394
ltoes 6.02742
978
root -0.231957 16.3526 -0.556732 -159.762 -4.80048 178.514
lowerback -14.1117 0.7504 -1.23348
upperback -5.97213 0.407923 -0.516814
thorax 1.6094 -0.113571 0.209629
lowerneck -15.0302 2.26377 -0.836106
upperneck 42.1289 -3.0533 2.58751
head 18.4566 -2.7683 0.1944
rclavicle -8.65179e-015 3.52843e-015
rhumerus -43.9871 -18.357 -64.7616
rradius 12.885
rwrist 6.60102
rhand 18.0099 9.09661
rfingers 7.12502
rthumb 42.6769 -15.2625
lclavicle -8.65179e-015 3.52843e-015
lhumerus -48.2758 12.2125 70.1966
lradius 29.5333
lwrist -2.47783
lhand 17.2023 26.309
lfingers 7.12502
lthumb 41.9204 50.9256
rfemur -25.8513 -20.9955 26.4672
rtibia 60.5462
rfoot 35.6891 -16.2134
rtoes 16.9174
lfemur -38.1448 0.128526 -33.8196
ltibia 42.3543
lfoot -34.0905 20.4539
ltoes 5.77184
